<svg xmlns="http://www.w3.org/2000/svg" width="111" height="142" viewBox="0 0 111 142" fill="none">
    <mask id="mask0_21_843" style="mask-type:luminance" maskUnits="userSpaceOnUse" x="0" y="0"
        width="111" height="142">
        <path d="M0.339844 0.5H110.34V141.5H0.339844V0.5Z" fill="white" />
    </mask>
    <g mask="url(#mask0_21_843)">
        <path fill-rule="evenodd" clip-rule="evenodd"
            d="M40.2827 0.495117L37.6421 19.4795L35.2358 22.3753L34.7879 22.7764L33.7046 24.016L32.7098 25.443L31.7827 27.0316L30.9338 28.7868L30.1942 30.6774L29.5327 32.7139L28.9806 34.8597L28.5483 37.1305L28.2202 39.4899L28.0327 41.9482L27.9546 44.4691L28.0327 46.9743L28.2202 49.4326L28.5483 51.7972L28.9806 54.068L29.5327 56.2139L30.1942 58.2451L30.9338 60.141L31.7827 61.9014L32.7098 63.4847L33.7046 64.9118L34.7879 66.1462L35.9286 67.1826L37.1317 68.016L37.7411 68.3441L38.3765 68.6253L39.0275 68.8441L39.6733 69.0003L40.3348 69.0889L41.0067 69.1253L41.6786 69.0889L42.34 69.0003L42.9911 68.8441L43.6317 68.6253L44.2671 68.3441L44.8869 68.016L46.0848 67.1826L47.2202 66.1462L48.3036 64.9118L49.3036 63.4847L50.2411 61.9014L51.0744 60.141L51.8244 58.2451L52.4858 56.2139L53.0327 54.068L53.4702 51.7972L53.7879 49.4326L53.9494 47.4691L53.7411 47.5003C54.09 40.4691 53.2723 34.417 50.2254 27.1878L48.8973 24.8597L48.3036 24.016L47.2202 22.7764L46.0848 21.7451L44.8869 20.9066L44.2671 20.5785L43.7879 20.3649L42.7515 18.2191L40.2827 0.495117ZM71.965 1.93262L67.9806 22.016L67.3713 22.3441L66.1681 23.1774L65.0275 24.2139L63.9494 25.4482L63.3608 26.292L62.0223 28.6201C59.7306 35.1462 58.3348 41.8649 58.5119 48.9326L58.3036 48.9014L58.4598 50.8701L58.7827 53.2295L59.2202 55.5003L59.7723 57.6462L60.4338 59.6826L61.1733 61.5732L62.0171 63.3389L62.9494 64.917L63.9494 66.3441L65.0275 67.5837L66.1681 68.6149L67.3713 69.4535L67.9806 69.7816L68.6161 70.0576L69.2619 70.2816L69.9129 70.4378L70.5744 70.5264L71.2411 70.5576L71.9181 70.5264L72.5796 70.4378L73.2306 70.2816L73.8713 70.0576L74.5067 69.7816L75.1213 69.4535L76.3244 68.6149L77.4598 67.5837L78.5431 66.3441L79.5431 64.917L80.465 63.3389L81.314 61.5732L82.0588 59.6826L82.7202 57.6462L83.2723 55.5003L83.7098 53.2295L84.0275 50.8701L84.2202 48.4118L84.2931 45.891L84.2202 43.3857L84.0275 40.9274L83.7098 38.5628L83.2723 36.2972L82.7202 34.1462L82.0588 32.1149L81.314 30.2191L80.465 28.4639L79.5431 26.8753L78.5431 25.4482L77.4598 24.2139L77.0171 23.8128L74.6056 20.917L71.965 1.93262ZM6.12646 36.9482L6.09001 36.9691H6.04834L6.01709 36.9743H5.8348L5.76188 36.9899L5.69417 37.0003L5.54834 37.0264L5.51188 37.0316L5.46501 37.0576L5.39209 37.0837L5.32438 37.0993L5.25146 37.1201L5.17334 37.1566L5.10042 37.1982L4.97021 37.2555L4.90251 37.3024L4.8348 37.3545L4.70459 37.4274L4.43376 37.6253L4.28271 37.7555L4.15251 37.8753L3.90251 38.1305L3.40771 38.7607L2.92855 39.516L2.50146 40.3753L2.09001 41.3545L1.73584 42.4118L1.3973 43.568L0.876465 46.1149L0.54834 48.9535L0.42334 51.9587L0.54834 54.9743L0.876465 57.8128L1.3973 60.3597L1.73584 61.516L2.09001 62.5732L2.50146 63.5524L2.61084 63.766L2.59521 63.8805L2.55355 65.568L2.61605 67.3285L2.81396 69.1514L3.13688 71.0524L3.59001 72.9691L4.16813 74.9378L4.87646 76.9222L5.72021 78.8962L6.66813 80.8285L7.69938 82.6566L8.78792 84.3701L9.95459 85.9639L11.1577 87.4274L12.4025 88.7555L13.689 89.943L14.9858 90.9951L16.2879 91.8701L17.6004 92.5837L18.8973 93.141L20.1838 93.5107L21.439 93.7087L22.6681 93.693L23.2515 93.6201L23.8296 93.4951L24.3921 93.3128L24.9442 93.0837L25.4702 92.8076L25.965 92.4795L26.439 92.0993L26.8765 91.6826L27.6577 90.7399L28.3296 89.6357L28.8713 88.3962L29.3035 87.0212L29.6056 85.5264L29.7775 83.9274L29.8296 82.2399L29.7619 80.4795L29.564 78.6566L29.241 76.7555L28.7879 74.8389L28.2098 72.8701L27.5015 70.8857L26.6629 68.9118L25.7098 66.9743L24.6994 65.1514L23.59 63.4378L22.4338 61.8441L21.2254 60.3805L19.9858 59.0524L18.7046 57.8597L17.4129 56.8285L16.1004 55.9326L14.7879 55.2243L13.4858 54.667L12.1942 54.2972L10.9338 54.0993L9.72021 54.1149L9.12646 54.1878L8.54834 54.3128L8.13688 54.443L8.13167 54.4014L7.56917 52.8597L7.04834 51.2451L6.62126 49.5576L6.26188 47.7972L5.99105 46.016L5.8348 44.2712L5.76188 42.5837V40.9326L5.86605 39.3597L6.06396 37.8597L6.11605 37.6305L6.15771 37.4014L6.23063 36.9691H6.22542L6.20459 36.9482H6.12126H6.12646ZM104.507 36.9743L104.491 36.9899H104.481L104.559 37.4274L104.6 37.6566L104.647 37.8857L104.845 39.3857L104.955 40.9587V42.6045L104.876 44.2972L104.72 46.042L104.449 47.818L104.095 49.5837L103.668 51.2712L103.147 52.8857L102.585 54.4274L102.58 54.4691L102.163 54.3389L101.585 54.2139L100.991 54.141L99.7775 54.1253L98.5171 54.318L97.2306 54.6878L95.9286 55.2451L94.6161 55.9587L93.3036 56.8545L92.0067 57.8857L90.7306 59.0732L89.4911 60.4014L88.2775 61.8701L87.1213 63.4587L86.0171 65.1722L85.0015 67.0003L84.0536 68.9378L83.2098 70.9118L82.5015 72.8962L81.9233 74.8649L81.4702 76.7816L81.1473 78.6826L80.9494 80.5003L80.8869 82.266L80.9338 83.9535L81.1056 85.5524L81.4129 87.042L81.84 88.4222L82.3869 89.6566L83.0536 90.766L83.84 91.7087L84.2775 92.1253L84.7463 92.5003L85.2411 92.8285L85.7671 93.1097L86.3244 93.3389L86.8817 93.5212L87.4598 93.641L88.0483 93.7139L89.2775 93.7347L90.5327 93.5368L91.8192 93.167L93.1108 92.6097L94.4233 91.8962L95.7306 91.0212L97.0223 89.9691L98.3088 88.7816L99.5588 87.4535L100.762 85.9847L101.923 84.3962L103.012 82.6826L104.048 80.8545L104.996 78.9222L105.835 76.943L106.548 74.9587L107.121 72.9951L107.58 71.0732L107.897 69.1722L108.095 67.3545L108.163 65.5941L108.121 63.9014L108.106 63.7868L108.215 63.5732L108.626 62.5993L108.981 61.542L109.319 60.3857L109.84 57.8389L110.168 55.0003L110.293 51.9847L110.168 48.9743L109.84 46.141L109.319 43.5889L108.981 42.4326L108.626 41.3753L108.215 40.4014L107.783 39.542L107.304 38.7868L106.809 38.1566L106.564 37.9014L106.429 37.7764L106.283 37.6462L106.012 37.4482L105.876 37.3753L105.814 37.3285L105.746 37.2764L105.616 37.2191L105.538 37.1826L105.465 37.1462L105.392 37.1253L105.324 37.1045L105.251 37.0837L105.199 37.0576L105.168 37.0472L105.017 37.0264L104.955 37.016L104.882 37.0003H104.699L104.663 36.9899H104.621L104.59 36.9743H104.507ZM54.7619 78.4014L53.0275 78.5003L51.3556 78.766L49.7306 79.2087L48.1681 79.8128L46.6942 80.568L45.2931 81.4535C40.7202 86.3857 39.314 91.318 37.0483 96.2503L36.0744 97.6201L34.9754 98.8805L33.7619 100.037L32.4702 101.068L31.064 101.953L29.59 102.709C24.2046 104.052 20.8192 106.063 17.8869 108.219L16.6785 109.375L15.5796 110.636L14.616 112.011L13.3088 114.49L13.0483 115.052L12.4754 116.693L12.064 118.407L11.7983 120.177L11.715 122.006L11.7983 123.823L12.064 125.604L12.4754 127.318L13.0483 128.953L13.7567 130.516L14.616 131.995L15.5796 133.365L16.6785 134.631L17.8869 135.787L19.1838 136.818L20.5848 137.709L22.064 138.459L23.6213 139.073C26.6942 140.631 29.3504 140.657 32.6942 139.36L32.7098 139.334L33.6838 139.073L35.2411 138.459L36.7202 137.709L38.1265 136.818C46.6421 131.37 56.0431 128.078 70.7046 137.521L72.1056 138.417C76.7827 141.516 81.7046 141.276 86.7671 139.167L88.2358 138.417L89.6473 137.521L90.9442 136.49L92.1577 135.334L93.2463 134.073L94.2202 132.703L95.0692 131.219L95.7775 129.662L96.3556 128.021L96.7619 126.308L97.0275 124.532L97.1161 122.709L97.0275 120.881L96.7619 119.11L96.3556 117.396L95.7775 115.761L95.0692 114.198L94.2202 112.719L93.2463 111.339L92.1577 110.078L90.9442 108.922L89.6473 107.891L88.2358 107.006L82.8973 105.464L81.34 104.849L79.8608 104.094L78.4598 103.209L77.1629 102.177L75.9546 101.021L74.8556 99.7555L73.8869 98.3805L73.0327 96.9066L68.8088 86.2816L67.8348 84.9066L66.7463 83.641L65.5327 82.4847L64.2358 81.4535L62.8348 80.568L61.3556 79.8128L59.7983 79.2087L58.1733 78.766L56.4858 78.5003L54.7619 78.4014Z"
            fill="white" />
    </g>
</svg>