<svg xmlns="http://www.w3.org/2000/svg" xmlns:xlink="http://www.w3.org/1999/xlink" width="1920" zoomAndPan="magnify" viewBox="0 0 1440 809.999993" height="1080" preserveAspectRatio="xMidYMid meet" version="1.0"><defs><clipPath id="92a11a1f26"><path d="M 871.191406 363 L 1197.855469 363 L 1197.855469 535.703125 L 871.191406 535.703125 Z M 871.191406 363 " clip-rule="nonzero"/></clipPath><clipPath id="2f5a5ac0f8"><path d="M 707 30.050781 L 1051 30.050781 L 1051 482 L 707 482 Z M 707 30.050781 " clip-rule="nonzero"/></clipPath><clipPath id="9375786fb9"><path d="M 369 501 L 1156 501 L 1156 779.507812 L 369 779.507812 Z M 369 501 " clip-rule="nonzero"/></clipPath></defs><path fill="#000000" d="M 746.058594 142.164062 C 763.125 132.273438 773.292969 115.90625 773.292969 115.90625 L 749.488281 121.988281 C 749.488281 121.988281 759.875 115.167969 765.878906 102.96875 C 731.105469 113.453125 678.566406 137.535156 664.453125 144.117188 C 663.074219 140.886719 659.984375 138.613281 656.335938 138.335938 L 647.984375 128.328125 C 647.984375 128.328125 647.363281 127.050781 646.089844 127.449219 C 644.8125 127.847656 645.210938 129.0625 645.210938 129.0625 L 647.445312 142.917969 C 646.566406 144.355469 646.050781 146.03125 646.050781 147.824219 C 646.050781 149.199219 646.347656 150.496094 646.847656 151.671875 C 628.542969 159.667969 593.710938 175.953125 551.542969 200.894531 C 566.792969 202.25 579.972656 198.222656 586.394531 195.75 C 581.230469 198.082031 572.257812 202.570312 565.179688 208.410156 C 580.253906 211.359375 595.265625 208.03125 595.265625 208.03125 C 595.265625 208.03125 581.25 211.917969 572.914062 218.5 C 589.246094 220.992188 600.46875 217.0625 600.46875 217.0625 C 600.46875 217.0625 590.980469 222.265625 585.078125 227.011719 C 611.136719 226.074219 640.007812 218.121094 666.484375 208.230469 C 667.460938 217.242188 669.394531 239.671875 666.007812 253.566406 C 676.535156 245.910156 680.144531 233.210938 680.144531 233.210938 L 683.492188 245.035156 C 683.492188 245.035156 711.046875 238.734375 728.511719 217.0625 C 715.535156 211.101562 704.667969 201.394531 698.386719 195.035156 C 731.722656 179.941406 755.808594 165.226562 755.808594 165.226562 C 755.808594 165.226562 751.980469 161.140625 740.894531 161.203125 C 758.042969 154.304688 767.074219 141.523438 767.074219 141.523438 C 767.074219 141.523438 761.570312 140.089844 746.058594 142.164062 " fill-opacity="1" fill-rule="nonzero"/><g clip-path="url(#92a11a1f26)"><path fill="#000000" d="M 1063.933594 387.257812 C 1051.171875 380.5625 1040.066406 380.601562 1040.066406 380.601562 C 1040.066406 380.601562 1057.394531 379.503906 1068.320312 383.152344 C 1079.226562 386.800781 1078.109375 389.769531 1091.445312 393.9375 C 1082.433594 395.351562 1076.710938 393.976562 1063.933594 387.257812 Z M 1198.035156 381.578125 C 1196.203125 369.136719 1182.324219 369.816406 1168.03125 370.414062 C 1153.695312 370.992188 1145.597656 369.296875 1137.144531 366.644531 C 1121.273438 360.84375 1117.128906 365.707031 1108.613281 370.3125 C 1100.121094 374.917969 1080.898438 373.265625 1066.902344 372.625 C 1052.925781 371.96875 1037.472656 374.679688 1036 379.863281 C 1033.488281 388.675781 1068 406.796875 1083.710938 399.878906 C 1088.019531 398.222656 1091.488281 399.601562 1089.453125 403.847656 C 1086.5625 410.882812 1084.011719 415.648438 1081.277344 419.773438 C 1077.570312 425.417969 1069.335938 437.378906 1054.800781 451.714844 C 1047.105469 459.289062 1038.171875 465.886719 1029.300781 469.816406 C 1001.226562 482.214844 944.441406 449.757812 913.339844 449.9375 C 886.085938 450.078125 874.460938 472.445312 871.96875 478.027344 C 945.9375 487.617188 1018.472656 506.796875 1087.261719 535.066406 L 1093.878906 535.347656 C 1093.878906 535.347656 1115.054688 485.207031 1119.878906 475.179688 C 1129.808594 454.5625 1141.453125 430.121094 1141.453125 430.121094 C 1141.453125 430.121094 1131.601562 428.984375 1127.574219 425.058594 C 1141.652344 427.96875 1156.703125 415.6875 1156.703125 415.6875 C 1156.703125 415.6875 1171.101562 404.824219 1182.703125 401.613281 C 1189.722656 402.828125 1193.730469 400.136719 1194.90625 396.289062 C 1196.101562 392.441406 1194.207031 393.597656 1188.886719 392.324219 C 1183.582031 391.027344 1179.632812 392.820312 1179.632812 392.820312 L 1193.628906 386.28125 C 1193.628906 386.28125 1198.136719 383.769531 1198.035156 381.578125 " fill-opacity="1" fill-rule="nonzero"/></g><g clip-path="url(#2f5a5ac0f8)"><path fill="#000000" d="M 720.097656 400.875 C 719.460938 422.585938 718.066406 436.980469 713.558594 449.0625 L 707.917969 472.644531 C 714.714844 472.207031 721.554688 471.910156 728.394531 471.628906 L 733.417969 452.691406 C 733.417969 452.691406 757.980469 423.003906 770.722656 383.074219 C 769.246094 394.476562 765.898438 413.695312 757.703125 441.765625 C 757.644531 441.707031 762.226562 454.941406 767.8125 470.953125 C 774.871094 470.992188 781.90625 471.070312 788.945312 471.289062 C 785.597656 460.945312 782.566406 451.433594 781.011719 446.410156 C 776.425781 431.617188 784.679688 416.664062 784.679688 416.664062 L 806.730469 369.394531 C 829.9375 362.898438 841.503906 353.925781 849.238281 365.25 L 843.636719 430.101562 L 839.808594 474.421875 C 846.328125 475 852.808594 475.757812 859.308594 476.492188 L 865.808594 433.390625 L 881.179688 366.585938 C 884.570312 356.558594 894.078125 349.300781 894.078125 349.300781 C 894.078125 349.300781 885.984375 363.277344 882.953125 389.351562 C 879.921875 415.449219 876.734375 443.796875 876.734375 443.796875 L 880.363281 479.183594 C 886.421875 480.042969 892.464844 480.941406 898.503906 481.917969 C 897.269531 465.507812 895.792969 447.289062 894.855469 440.210938 C 892.964844 426.113281 893.382812 360.1875 905.40625 341.964844 C 917.425781 323.722656 930.644531 309.566406 924.683594 285.503906 C 918.742188 261.441406 930.964844 241.644531 944.742188 212.398438 C 958.519531 183.171875 975.246094 120.632812 995.34375 115.726562 L 1025.433594 132.632812 C 1025.433594 132.632812 1042.777344 143.339844 1048.222656 137.257812 C 1056.753906 127.789062 1041.203125 112.136719 1033.945312 101.214844 C 1026.6875 90.289062 1021.824219 80.261719 1012.074219 70.429688 C 1005.734375 63.992188 1001.566406 55.140625 999.453125 46.886719 C 1002.78125 45.710938 1005.15625 42.519531 1005.09375 38.773438 C 1004.996094 34.085938 1001.128906 30.359375 996.421875 30.4375 C 991.757812 30.539062 988.007812 34.40625 988.085938 39.089844 C 988.148438 42.441406 990.179688 45.273438 993.011719 46.609375 C 992.117188 54.125 989.683594 63.292969 983.363281 67.980469 C 982.644531 68.496094 977.042969 71.886719 957.285156 68.417969 C 947.253906 66.882812 942.648438 71.964844 942.648438 71.964844 C 942.648438 71.964844 955.050781 85.203125 972.296875 83.390625 C 964.539062 86.878906 956.785156 86.878906 950.882812 85.960938 C 942.667969 93.417969 933.636719 105.179688 923.566406 125.097656 C 899.523438 172.785156 889.972656 190.289062 864.429688 199.179688 C 838.890625 208.070312 837.097656 216.265625 827.984375 232.871094 C 818.894531 249.5 804.636719 261.878906 776.425781 272.726562 C 763.941406 277.53125 751.761719 287.578125 741.972656 301.074219 C 738.324219 305.679688 730.785156 315.847656 723.648438 329.304688 C 712.105469 356.816406 720.398438 390.648438 720.097656 400.875 " fill-opacity="1" fill-rule="nonzero"/></g><path fill="#000000" d="M 350.148438 447.265625 C 351.742188 446.269531 355.449219 444.039062 359.160156 441.765625 C 364.082031 443.378906 366.875 452.949219 368.371094 455.679688 C 370.601562 459.765625 374.53125 459.546875 374.730469 455.480469 C 371.320312 439.152344 385.476562 428.648438 388.984375 423.742188 C 392.496094 418.859375 396.84375 425.4375 400.871094 431.976562 C 409.503906 448.761719 426.570312 424.578125 431.914062 439.53125 C 433.90625 445.132812 434.585938 446.808594 434.785156 447.226562 C 434.785156 447.386719 434.945312 448.246094 435.78125 451.355469 C 438.433594 461.300781 448.902344 480.761719 426.890625 494.257812 C 404.878906 507.753906 407.988281 522.226562 399.375 532.953125 C 391 543.359375 398.417969 551.613281 398.835938 552.074219 C 418.214844 542.960938 437.875 534.527344 457.890625 526.914062 C 465.589844 517.742188 476.496094 509.6875 484.332031 497.667969 L 484.511719 497.386719 C 496.53125 478.785156 501.539062 449.042969 501.539062 449.042969 C 501.539062 449.042969 504.628906 483.3125 498.507812 495.511719 C 495.894531 500.757812 492.863281 505.023438 484.628906 517.242188 C 497.988281 512.660156 511.507812 508.453125 525.105469 504.542969 C 521.636719 498.761719 518.046875 492.863281 514.457031 486.304688 C 505.542969 470.074219 516.113281 461.722656 526.917969 447.46875 C 532.761719 447.984375 539.578125 447.6875 545.621094 447.167969 C 550.066406 446.769531 561.789062 445.054688 561.789062 445.054688 C 561.789062 445.054688 557.824219 463.875 556.367188 481.539062 C 555.929688 486.722656 555.808594 491.566406 555.769531 496.25 C 573.175781 491.925781 590.71875 488.117188 608.40625 484.886719 C 608.726562 482.214844 609.125 479.683594 609.742188 477.3125 C 611.15625 471.667969 615.542969 460.566406 622.34375 450.738281 L 622.203125 450.597656 C 622.203125 450.597656 638.015625 420.375 643.535156 386.023438 C 643.695312 404.984375 646.425781 423.042969 636.320312 448.863281 C 647.984375 452.890625 661.960938 457.695312 668.859375 459.945312 C 675.496094 462.101562 679.484375 467.863281 682.296875 474.679688 C 699.203125 473.085938 716.171875 471.988281 733.179688 471.410156 C 731.464844 468.660156 729.269531 465.148438 726.441406 460.585938 C 713.28125 439.511719 711.585938 427.949219 705.105469 421.96875 C 691.90625 405.898438 686.085938 401.15625 678.964844 386.800781 C 678.269531 385.40625 670.992188 368.519531 667.441406 358.871094 C 652.546875 318.539062 639.949219 307.234375 610.460938 290.1875 C 580.992188 273.125 544.304688 280.859375 525.164062 289.332031 C 506.042969 297.804688 485.066406 305.640625 485.066406 305.640625 C 485.066406 305.640625 485.066406 305.640625 494.058594 325.835938 C 503.03125 346.03125 494.121094 360.1875 463.535156 384.1875 C 498.425781 349.480469 480.621094 330.679688 463.792969 306.019531 C 446.964844 281.359375 433.109375 289.3125 427.265625 295.472656 C 404.617188 317.941406 363.625 318.4375 349.128906 328.367188 C 309.394531 354.085938 306.460938 391.925781 313.101562 431.558594 C 322.195312 429.84375 332.519531 426.3125 349.589844 418.460938 L 349.570312 418.679688 C 348.730469 418.996094 347.855469 419.4375 346.957031 420.074219 C 306.902344 453.628906 264.492188 462.21875 245.910156 464.414062 C 242.558594 465.429688 242.539062 467.542969 245.808594 468.441406 C 269.816406 475.039062 296.972656 469.117188 317.449219 461.921875 C 318.226562 486.703125 309.550781 497.1875 297.410156 503.289062 C 281.820312 511.125 270.554688 517.960938 263.675781 527.710938 C 256.816406 537.460938 252.648438 547.167969 266.804688 554.523438 C 276.015625 559.328125 278.988281 552.910156 283.394531 547.449219 C 292.605469 535.285156 301.894531 532.335938 301.894531 532.335938 C 301.894531 532.335938 315.851562 524.582031 331.683594 512.777344 C 347.515625 500.957031 347.695312 482.734375 347.695312 482.734375 L 350.148438 447.265625 " fill-opacity="1" fill-rule="nonzero"/><path fill="#000000" d="M 1008.503906 626.214844 C 996.101562 622.828125 989.824219 634.289062 985.554688 649.960938 C 981.148438 666.128906 980.871094 680.0625 994.746094 683.851562 C 1007.148438 687.222656 1013.390625 675.9375 1017.65625 660.265625 C 1022.101562 643.9375 1022.402344 630.003906 1008.503906 626.214844 " fill-opacity="1" fill-rule="nonzero"/><path fill="#000000" d="M 918.703125 606.578125 C 906.023438 604.445312 900.917969 616.445312 898.226562 632.476562 C 895.433594 649.003906 896.53125 662.917969 910.707031 665.3125 C 923.410156 667.445312 928.492188 655.582031 931.183594 639.574219 C 933.976562 622.886719 932.898438 608.972656 918.703125 606.578125 " fill-opacity="1" fill-rule="nonzero"/><path fill="#000000" d="M 712.023438 604.746094 C 711.546875 598.164062 707.019531 594.417969 700.957031 594.855469 C 686.085938 595.953125 683.472656 611.222656 683.953125 624.941406 C 705.027344 622.90625 712.582031 612.519531 712.023438 604.746094 " fill-opacity="1" fill-rule="nonzero"/><g clip-path="url(#9375786fb9)"><path fill="#000000" d="M 1038.351562 664.15625 C 1031.710938 688.476562 1014.304688 704.085938 989.324219 697.289062 C 964.339844 690.46875 957.882812 671.710938 964.859375 646.074219 C 971.578125 621.429688 988.945312 605.980469 1013.925781 612.777344 C 1038.910156 619.597656 1045.410156 638.199219 1038.351562 664.15625 Z M 952.160156 641.386719 C 947.972656 666.269531 932.199219 683.511719 906.660156 679.207031 C 881.121094 674.921875 872.824219 656.878906 877.230469 630.660156 C 881.480469 605.480469 897.230469 588.375 922.769531 592.683594 C 948.3125 596.988281 956.625 614.851562 952.160156 641.386719 Z M 868.679688 568.261719 L 814.007812 651.476562 C 817.894531 651.59375 821.785156 651.695312 826.507812 652.011719 L 864.671875 654.683594 L 863.574219 670.554688 L 786.910156 665.210938 L 787.75 653.050781 L 843.296875 569.714844 C 838.691406 569.894531 834.144531 569.597656 828.742188 569.199219 L 796.640625 566.964844 L 795.066406 550.917969 L 869.535156 556.101562 Z M 725.640625 663.496094 C 719.859375 665.949219 712.222656 668.382812 703.628906 669 C 677.453125 670.894531 665.96875 655.28125 664.152344 630.460938 C 661.960938 600.238281 678.546875 583.074219 701.496094 581.417969 C 721.59375 579.945312 730.445312 589.832031 731.445312 603.328125 C 732.621094 619.714844 715.035156 634.570312 685.367188 637.242188 C 687.460938 647.429688 692.125 655.761719 705.304688 654.785156 C 710.210938 654.445312 716.191406 652.652344 720.796875 650.777344 C 723.609375 649.71875 726.238281 648.523438 728.851562 647.148438 L 734.8125 658.929688 C 732.042969 660.644531 728.910156 662.082031 725.640625 663.496094 Z M 634.445312 675.277344 L 625.171875 620.894531 C 623.578125 611.542969 619.589844 606.398438 611.753906 607.734375 C 602.402344 609.328125 594.210938 620.671875 595.984375 636.003906 L 603.601562 680.5625 L 584.398438 683.832031 L 564.324219 566.226562 L 582.925781 559.609375 L 591.199219 607.972656 C 596.242188 598.363281 605.015625 593.441406 614.867188 591.746094 C 622.382812 590.46875 628.382812 591.507812 633.269531 594.957031 C 638.75 598.824219 642.359375 605.941406 644.136719 616.289062 L 653.644531 672.007812 Z M 544.902344 693.878906 L 525.304688 699.261719 L 499.042969 603.628906 L 471.3125 611.242188 L 467.222656 596.390625 L 544.425781 575.199219 L 546.058594 590.730469 L 518.644531 598.246094 Z M 1145.378906 595.472656 C 1030.953125 535.207031 900.621094 501.054688 762.289062 501.054688 C 623.957031 501.054688 493.640625 535.207031 379.195312 595.472656 C 361.113281 605.582031 372.695312 625.957031 372.695312 625.957031 L 451.972656 768.082031 C 451.972656 768.082031 463.734375 786.722656 484.667969 776.375 C 568.050781 734.050781 662.378906 710.167969 762.289062 710.167969 C 862.21875 710.167969 956.546875 734.050781 1039.925781 776.375 C 1060.863281 786.722656 1072.605469 768.082031 1072.605469 768.082031 L 1151.898438 625.957031 C 1151.898438 625.957031 1163.484375 605.582031 1145.378906 595.472656 " fill-opacity="1" fill-rule="nonzero"/></g></svg>