<svg xmlns="http://www.w3.org/2000/svg" width="155" height="130" viewBox="0 0 155 130" fill="none">
    <path
        d="M89.1991 62.9787C89.9543 63.4839 90.9647 63.9891 91.7251 64.4943C91.9751 62.7235 91.7251 60.9526 90.7147 59.437C89.4491 56.9058 86.423 54.8849 83.647 54.1245C81.8761 53.6193 80.3605 53.8745 79.1001 54.6297C78.3449 55.1401 77.5845 55.6453 77.3345 56.4006C81.8761 56.4006 86.423 58.9318 89.1991 62.9787Z"
        fill="white" />
    <path
        d="M101.319 71.068L104.095 94.0837C109.397 93.8285 116.97 92.818 116.97 83.9691C116.97 75.6201 110.153 68.792 101.824 68.792C101.064 68.792 100.309 68.792 99.5483 69.0472C100.559 69.3024 101.064 70.0576 101.319 71.068Z"
        fill="white" />
    <mask id="mask0_21_874" style="mask-type:luminance" maskUnits="userSpaceOnUse" x="0" y="55"
        width="110" height="75">
        <path d="M0.839844 55.5986H109.887V129.5H0.839844V55.5986Z" fill="white" />
    </mask>
    <g mask="url(#mask0_21_874)">
        <path
            d="M109.397 121.9C109.397 118.359 106.871 115.072 103.335 114.567C102.329 114.312 101.569 113.557 101.319 112.291L100.053 101.671L99.043 94.0827L96.5221 73.8535H94.7513C93.7409 73.8535 92.9857 73.3431 92.4805 72.5879C92.4805 72.3327 92.2305 72.3327 92.2305 72.3327C91.4701 71.0671 90.4596 70.0566 89.1992 69.0462C88.444 68.2858 87.4336 67.7806 86.4232 67.2754C85.918 67.0254 85.4128 66.7702 85.1576 66.265C83.1419 62.9785 79.8607 61.2077 76.069 61.2077C75.0638 61.2077 74.0534 61.4577 73.043 61.9629C72.2826 61.7129 71.5273 61.4577 71.0221 61.4577C70.0117 61.2077 69.0013 61.2077 67.9909 61.2077C67.2357 61.2077 66.4753 60.9525 65.9753 60.4473C63.4492 57.666 59.9128 56.1504 56.3815 56.1504C54.8659 56.1504 53.3503 56.4004 52.0898 56.9056C51.5846 57.1608 51.0794 57.416 50.5742 57.666C50.319 57.666 50.319 57.9212 50.069 57.9212C49.5638 58.1712 48.8034 58.6764 48.3034 59.1816C46.5326 57.1608 44.0065 56.1504 41.2305 56.1504C36.4336 56.1504 32.6471 59.4368 31.3867 63.7337C25.0742 63.4837 20.0273 68.0358 18.7617 73.8535H15.9857C14.7253 73.8535 13.7148 74.8639 13.4596 76.1296L8.66276 114.312H8.41276C4.12109 114.312 0.839844 117.598 0.839844 121.9C0.839844 126.197 4.12109 129.489 8.41276 129.489H101.824C106.116 129.489 109.397 126.197 109.397 121.9ZM13.7148 114.312L18.2565 78.9108H91.9753L96.5221 114.312H13.7148Z"
            fill="white" />
    </g>
    <mask id="mask1_21_874" style="mask-type:luminance" maskUnits="userSpaceOnUse" x="51" y="0"
        width="104" height="130">
        <path d="M51.2202 0.5H154.84V129.5H51.2202V0.5Z" fill="white" />
    </mask>
    <g mask="url(#mask1_21_874)">
        <path
            d="M150.293 107.484C148.527 106.474 147.772 104.198 148.022 102.427C152.564 76.8854 152.564 51.0938 148.272 25.2969L147.267 18.4688L148.777 13.9167C149.788 10.8802 149.283 7.59375 147.517 4.8125C145.751 2.03125 142.47 0.515625 139.184 0.515625H63.4492C59.9128 0.515625 56.6315 2.28646 54.8659 5.31771C53.0951 8.35417 52.8451 11.8958 54.3607 15.1823L56.1263 18.724L55.1159 25.2969C53.6003 33.8958 52.8451 42.7448 52.3398 51.599C53.6003 51.3438 54.8659 51.0938 56.3815 51.0938C60.9232 51.0938 65.4701 52.8646 68.7513 56.151C69.7617 56.151 70.5169 56.151 71.5273 56.401C76.5742 44.2656 88.444 35.9167 101.824 35.9167C120.001 35.9167 134.642 50.5886 134.642 68.7917C134.642 85.7396 121.512 99.9011 105.105 101.417L106.116 110.016C111.163 111.786 114.444 116.589 114.444 121.901C114.444 124.682 113.434 127.464 111.918 129.49H144.741C150.293 129.49 154.84 124.938 154.84 119.37V116.083C154.84 112.542 153.069 109.255 150.293 107.484ZM143.98 12.1458L142.975 15.6875H139.689V13.1563C139.689 11.6406 138.684 10.6302 137.168 10.6302C135.652 10.6302 134.642 11.6406 134.642 13.1563V15.6875H129.595V13.1563C129.595 11.6406 128.585 10.6302 127.069 10.6302C125.553 10.6302 124.543 11.6406 124.543 13.1563V15.6875H119.496V13.1563C119.496 11.6406 118.486 10.6302 116.97 10.6302C115.454 10.6302 114.444 11.6406 114.444 13.1563V15.6875H109.397V13.1563C109.397 11.6406 108.387 10.6302 106.871 10.6302C105.355 10.6302 104.345 11.6406 104.345 13.1563V15.6875H99.2982V13.1563C99.2982 11.6406 98.2878 10.6302 96.7721 10.6302C95.2565 10.6302 94.2461 11.6406 94.2461 13.1563V15.6875H89.1992V13.1563C89.1992 11.6406 88.1888 10.6302 86.6732 10.6302C85.1576 10.6302 84.1523 11.6406 84.1523 13.1563V15.6875H79.1003V13.1563C79.1003 11.6406 78.0898 10.6302 76.5742 10.6302C75.0638 10.6302 74.0534 11.6406 74.0534 13.1563V15.6875H69.0013V13.1563C69.0013 11.6406 67.9909 10.6302 66.4753 10.6302C64.9648 10.6302 63.9544 11.6406 63.9544 13.1563V15.6875H60.418L58.9023 12.9063C58.1471 11.3906 58.1471 9.61979 59.1576 8.09896C60.168 6.58333 61.6836 5.82292 63.4492 5.82292H139.184C140.954 5.82292 142.215 6.58333 143.225 7.84896C144.236 9.11458 144.486 10.6302 143.98 12.1458Z"
            fill="white" />
    </g>
    <path
        d="M101.824 63.7341C106.116 63.7341 109.397 60.4476 109.397 56.1507C109.397 52.1038 106.366 46.0361 101.824 46.0361C97.2773 46.0361 94.2461 52.1038 94.2461 56.1507C94.2461 60.4476 97.5326 63.7341 101.824 63.7341Z"
        fill="white" />
    <path
        d="M115.205 69.5522C116.465 70.3126 117.725 70.5626 118.991 70.5626C119.746 70.5626 120.252 70.5626 121.007 70.3126C123.028 69.8074 124.543 68.5418 125.554 66.7709C126.564 65.2553 127.069 62.7241 127.069 60.448C127.069 57.4168 126.059 55.1407 124.038 54.1251C122.017 53.1147 119.746 53.1147 116.97 54.6303C114.949 55.6459 113.184 57.4168 112.423 58.9324C110.408 62.9793 111.668 67.5313 115.205 69.5522Z"
        fill="white" />
    <path
        d="M76.5742 91.5521C76.5742 87.2552 73.293 83.9688 69.0013 83.9688C65.7201 83.9688 62.944 85.9896 61.9336 89.026H51.0794C50.069 85.9896 47.293 83.9688 44.0065 83.9688C39.7148 83.9688 36.4336 87.2552 36.4336 91.5521C36.4336 92.8177 36.6888 94.0833 37.444 95.0938C37.9492 96.1042 37.9492 97.1198 37.444 98.1302C36.4336 99.1406 36.1836 100.406 36.1836 101.672C36.1836 105.969 39.4648 109.255 43.7565 109.255C47.0378 109.255 49.8138 107.234 50.8242 104.198H61.6836C62.6888 107.234 65.4701 109.255 68.7513 109.255C73.043 109.255 76.3242 105.969 76.3242 101.672C76.3242 100.406 76.069 99.1406 75.3138 98.1302C74.8086 97.1198 74.8086 96.1042 75.3138 95.0938C76.3242 94.0833 76.5742 92.8177 76.5742 91.5521Z"
        fill="white" />
</svg>