<svg width="277" height="313" viewBox="0 0 277 313" fill="none" xmlns="http://www.w3.org/2000/svg">
<mask id="mask0_56_808" style="mask-type:luminance" maskUnits="userSpaceOnUse" x="0" y="8" width="326" height="305">
<path d="M0.903809 84.9688L257.847 8.78252L325.315 236.324L68.3722 312.51L0.903809 84.9688Z" fill="white"/>
</mask>
<g mask="url(#mask0_56_808)">
<mask id="mask1_56_808" style="mask-type:luminance" maskUnits="userSpaceOnUse" x="2" y="-19" width="350" height="355">
<path d="M2.61239 124.022L194.34 -18.666L351.359 192.319L159.626 335.008L2.61239 124.022Z" fill="white"/>
</mask>
<g mask="url(#mask1_56_808)">
<mask id="mask2_56_808" style="mask-type:luminance" maskUnits="userSpaceOnUse" x="2" y="-19" width="350" height="354">
<path d="M194.456 -18.7495L2.72372 123.94L159.743 334.924L351.47 192.237L194.456 -18.7495Z" fill="white"/>
</mask>
<g mask="url(#mask2_56_808)">
<mask id="mask3_56_808" style="mask-type:luminance" maskUnits="userSpaceOnUse" x="2" y="-19" width="338" height="339">
<path d="M194.458 -18.7442L2.29752 124.262L147.246 319.035L339.411 176.027L194.458 -18.7442Z" fill="white"/>
</mask>
<g mask="url(#mask3_56_808)">
<mask id="mask4_56_808" style="mask-type:luminance" maskUnits="userSpaceOnUse" x="2" y="-19" width="338" height="338">
<path d="M194.457 -18.7442L2.71982 123.946L147.674 318.718L339.411 176.027L194.457 -18.7442Z" fill="white"/>
</mask>
<g mask="url(#mask4_56_808)">
<path d="M216.815 188.976C223.715 191.45 228.776 173.304 223.768 171.111C218.461 168.784 216.688 173.064 215.081 177.576C213.442 182.18 211.321 187.008 216.815 188.976ZM191.753 131.494C188.729 129.963 187.135 136.623 187.668 139.61C188.206 142.596 189.555 143.283 191.6 139.221C193.646 135.165 194.463 132.864 191.753 131.494ZM138.143 190.426C117.475 219.344 105.782 233.116 92.6273 236.99C92.6273 236.99 86.3051 231.058 78.6981 221.965C73.5579 215.824 66.1064 210.498 61.3474 202.327C59.0895 198.449 58.7753 192.186 57.1116 188.133C57.1116 188.133 82.7662 171.579 103.793 163.546C124.818 155.508 114.429 137.016 92.0171 157.927C82.7238 166.599 77.0679 174.126 63.6383 179.896C56.5576 182.93 49.3001 177.617 45.2019 171.07C41.6263 165.35 37.8349 156.337 32.9615 147.743C24.8657 133.466 15.9252 131.657 15.9252 131.657C15.9252 131.657 20.2258 128.279 24.6941 121.326C28.6233 115.212 32.3932 105.886 37.4877 99.9642C46.1815 89.857 53.8371 86.4354 64.9791 80.774C90.0797 68.013 93.8221 88.9157 97.7264 98.6936C101.632 108.476 106.345 119.351 111.906 117.751C117.466 116.146 98.6134 69.2746 86.0205 65.9571C86.0205 65.9571 89.7312 60.8097 98.9858 56.7346C104.795 54.1756 113.557 52.8378 122.529 50.9598C128.349 49.7393 134.801 48.853 141.829 48.5348C141.829 48.5348 152.008 68.4469 148.993 82.5363C145.973 96.6272 144.027 116.685 152.281 119.844C160.541 123.001 162.492 102.942 157.252 85.6937C152.008 68.4469 151.387 46.0701 151.387 46.0701C151.387 46.0701 155.201 45.6129 160.838 45.37C166.477 45.1322 174.645 48.2568 181.941 49.1358C186.806 49.7141 190.886 47.5536 195.021 49.1308C195.021 49.1308 204.133 86.3304 195.557 102.02C186.98 117.704 190.459 133.725 199.309 119.53C208.15 105.337 202.146 70.0463 206.939 50.4102C206.939 50.4102 211.867 51.752 218.852 54.4398C224.587 56.6507 230.963 56.7754 237.877 60.799C240.842 62.5167 244.511 67.3989 247.272 69.4541C247.272 69.4541 247.877 98.61 241.868 116.618C235.858 134.622 239.901 143.457 248.598 133.599C257.296 123.745 249.918 94.5553 253.359 74.2279C253.359 74.2279 277.167 90.3433 283.778 101.497C290.386 112.646 281.037 113.691 287.778 127.283C294.518 140.871 281.414 177.693 254.469 169.836C254.469 169.836 286.269 187.618 276.031 214.687C265.8 241.759 242.304 236.829 229.538 248.024C216.767 259.221 202.19 289.521 156.582 266.793C156.582 266.793 176.909 240.242 197.14 224.34C217.371 208.438 221.762 188.253 199.639 200.484C177.522 212.719 169.726 239.667 142.278 268.552C142.278 268.552 137.507 263.013 130.986 259.618C125.596 256.81 119 256.495 112.996 252.881C109.279 250.642 105.777 248.378 102.905 246.258C102.905 246.258 110.238 230.388 128.809 211.327C134.999 204.978 147.548 195.688 154.678 189.962C183.195 167.05 158.817 161.507 138.143 190.426Z" fill="#30AF21"/>
</g>
</g>
</g>
</g>
</g>
<mask id="mask5_56_808" style="mask-type:luminance" maskUnits="userSpaceOnUse" x="30" y="10" width="293" height="290">
<path d="M30.6846 77.5293L256.948 10.4399L322.9 232.868L96.6368 299.957L30.6846 77.5293Z" fill="white"/>
</mask>
<g mask="url(#mask5_56_808)">
<mask id="mask6_56_808" style="mask-type:luminance" maskUnits="userSpaceOnUse" x="2" y="-19" width="350" height="355">
<path d="M2.61288 124.022L194.341 -18.666L351.359 192.319L159.627 335.008L2.61288 124.022Z" fill="white"/>
</mask>
<g mask="url(#mask6_56_808)">
<mask id="mask7_56_808" style="mask-type:luminance" maskUnits="userSpaceOnUse" x="2" y="-19" width="350" height="354">
<path d="M194.457 -18.7495L2.72421 123.94L159.743 334.924L351.471 192.237L194.457 -18.7495Z" fill="white"/>
</mask>
<g mask="url(#mask7_56_808)">
<path d="M139.205 137.612C127.156 125.007 127.087 116.601 128.631 95.9945C130.177 75.3927 118.012 62.4524 118.012 62.4524M103.803 132.376C86.4028 127.703 66.2909 98.4043 66.2909 98.4043M66.2637 161.869C94.9233 134.618 111.578 132.233 111.578 132.233M81.9814 213.614C81.9814 213.614 89.3547 192.897 123.01 174.617C156.662 156.344 172.697 147.086 172.697 147.086M208.27 155.573C208.27 155.573 209.065 172.325 165.067 208.453C121.064 244.583 125.66 249.62 125.66 249.62M235.717 163.347C235.717 163.347 261.881 185.467 250.442 207.514C238.999 229.562 217.171 233.117 202.648 243.079C188.122 253.046 180.236 263.99 180.236 263.99M273.478 102.394C273.478 102.394 280.903 149.036 232.379 160.757M224.36 73.8193C224.36 73.8193 231.206 100.022 221.117 122.755C211.032 145.487 215.041 157.868 215.041 157.868M172.69 142.72C169.603 130.641 173.172 112.759 179.981 99.2282C186.792 85.7027 175.603 62.7328 175.603 62.7328" stroke="#88CF25" stroke-width="0.677773" stroke-miterlimit="10"/>
</g>
</g>
</g>
<mask id="mask8_56_808" style="mask-type:luminance" maskUnits="userSpaceOnUse" x="14" y="46" width="330" height="239">
<path d="M14.5493 130.988L298.337 46.8423L343.821 200.241L60.0336 284.387L14.5493 130.988Z" fill="white"/>
</mask>
<g mask="url(#mask8_56_808)">
<mask id="mask9_56_808" style="mask-type:luminance" maskUnits="userSpaceOnUse" x="2" y="-19" width="350" height="355">
<path d="M2.61288 124.022L194.341 -18.666L351.359 192.319L159.627 335.008L2.61288 124.022Z" fill="white"/>
</mask>
<g mask="url(#mask9_56_808)">
<mask id="mask10_56_808" style="mask-type:luminance" maskUnits="userSpaceOnUse" x="2" y="-19" width="350" height="354">
<path d="M194.457 -18.7495L2.72421 123.94L159.743 334.924L351.471 192.237L194.457 -18.7495Z" fill="white"/>
</mask>
<g mask="url(#mask10_56_808)">
<mask id="mask11_56_808" style="mask-type:luminance" maskUnits="userSpaceOnUse" x="15" y="-2" width="329" height="334">
<path d="M194.311 -1.89238L15.0425 131.516L164.162 331.892L343.429 198.478L194.311 -1.89238Z" fill="white"/>
</mask>
<g mask="url(#mask11_56_808)">
<mask id="mask12_56_808" style="mask-type:luminance" maskUnits="userSpaceOnUse" x="15" y="-2" width="329" height="334">
<path d="M194.311 -1.89238L15.0425 131.516L164.022 331.695L343.285 198.287L194.311 -1.89238Z" fill="white"/>
</mask>
<g mask="url(#mask12_56_808)">
<path d="M85.2421 131.247C100.248 132.078 113.608 134.609 131.706 138.119C161.638 143.922 196.3 152.158 226.642 161.361C281.833 178.096 327.361 196.762 336.847 200.87C338.723 201.683 340.884 200.743 341.568 198.818C342.228 196.977 341.258 194.95 339.416 194.29C322.76 188.391 246.569 161.786 172.69 142.72C167.461 141.375 162.284 140.145 157.157 139.014C80.2623 122.092 15.8707 128.924 15.9258 131.656C15.3803 134.361 45.365 129.039 85.2421 131.247Z" fill="#88CF25"/>
</g>
</g>
</g>
</g>
</g>
</svg>
