<svg width="306" height="348" viewBox="0 0 306 348" fill="none" xmlns="http://www.w3.org/2000/svg">
<mask id="mask0_536_13719" style="mask-type:luminance" maskUnits="userSpaceOnUse" x="7" y="0" width="299" height="320">
<path d="M305.384 60.9443L236.565 319.958L7.18999 259.013L76.0093 -0.000106403L305.384 60.9443Z" fill="white"/>
</mask>
<g mask="url(#mask0_536_13719)">
<mask id="mask1_536_13719" style="mask-type:luminance" maskUnits="userSpaceOnUse" x="9" y="42" width="285" height="263">
<path d="M271.159 42.0585L293.078 280.048L31.1857 304.168L9.26797 66.1739L271.159 42.0585Z" fill="white"/>
</mask>
<g mask="url(#mask1_536_13719)">
<mask id="mask2_536_13719" style="mask-type:luminance" maskUnits="userSpaceOnUse" x="9" y="42" width="285" height="263">
<path d="M293.089 280.19L271.171 42.1962L9.2786 66.3166L31.1976 304.306L293.089 280.19Z" fill="white"/>
</mask>
<g mask="url(#mask2_536_13719)">
<mask id="mask3_536_13719" style="mask-type:luminance" maskUnits="userSpaceOnUse" x="29" y="41" width="265" height="262">
<path d="M293.084 280.189L271.118 41.665L29.3516 63.9277L51.3157 302.457L293.084 280.189Z" fill="white"/>
</mask>
<g mask="url(#mask3_536_13719)">
<mask id="mask4_536_13719" style="mask-type:luminance" maskUnits="userSpaceOnUse" x="29" y="42" width="265" height="261">
<path d="M293.084 280.19L271.167 42.1904L29.3995 64.458L51.3158 302.457L293.084 280.19Z" fill="white"/>
</mask>
<g mask="url(#mask4_536_13719)">
<path d="M104.129 191.065C98.4225 195.665 111.275 209.438 115.756 206.306C120.507 202.988 117.777 199.245 114.762 195.523C111.686 191.725 108.67 187.399 104.129 191.065ZM166.25 199.616C169.133 197.833 164.278 193.002 161.451 191.901C158.622 190.804 157.333 191.599 159.734 195.46C162.131 199.319 163.67 201.215 166.25 199.616ZM143.874 123.155C129.957 90.448 124.292 73.2931 127.838 60.0461C127.838 60.0461 136.195 57.7397 147.92 55.9831C155.839 54.7947 164.267 51.2083 173.721 51.403C178.207 51.4956 183.717 54.49 188.044 55.1816C188.044 55.1816 188.81 85.7038 184.713 107.837C180.621 129.971 201.818 130.736 195.644 100.712C193.083 88.2618 189.604 79.5125 191.675 65.0436C192.774 57.4191 201.089 53.9915 208.813 53.9043C215.558 53.8318 225.226 55.2905 235.101 55.6077C251.505 56.1347 257.707 49.4456 257.707 49.4456C257.707 49.4456 258.35 54.8761 261.957 62.3121C265.129 68.8511 271.126 76.9275 273.527 84.361C277.625 97.0472 276.558 105.364 275.586 117.824C273.403 145.898 253.611 138.203 243.231 136.442C232.846 134.68 221.108 133.038 219.577 138.618C218.051 144.2 267.881 152.525 277.272 143.504C277.272 143.504 279.733 149.353 278.391 159.375C277.549 165.667 274.126 173.844 271.055 182.48C269.065 188.084 266.461 194.053 263.071 200.217C263.071 200.217 240.772 198.534 230.316 188.62C219.861 178.702 203.753 166.592 196.757 171.992C189.76 177.397 205.866 189.512 223.318 194.026C240.772 198.534 260.196 209.66 260.196 209.66C260.196 209.66 258.6 213.154 255.87 218.093C253.136 223.03 246.213 228.374 241.662 234.144C238.634 237.995 238.353 242.604 234.853 245.311C234.853 245.311 198.353 233.711 189.428 218.217C180.508 202.725 165.02 197.349 172.527 212.299C180.036 227.238 213.288 240.498 227.552 254.818C227.552 254.818 223.84 258.326 217.907 262.888C213.032 266.631 209.604 272.009 202.568 275.815C199.557 277.451 193.478 278.039 190.286 279.325C190.286 279.325 165.083 264.653 152.841 250.143C140.605 235.634 130.957 234.483 134.841 247.042C138.721 259.6 167.481 268.508 183.04 282.035C183.04 282.035 156.881 293.962 143.916 293.794C130.957 293.627 134.936 285.103 119.821 283.776C104.712 282.451 80.1074 252.083 100.851 233.177C100.851 233.177 69.1061 251.057 51.3336 228.217C33.5547 205.38 50.0031 187.893 47.0973 171.164C44.1928 154.43 25.9222 126.203 69.0814 99.1116C69.0814 99.1116 81.156 130.294 84.1909 155.847C87.2258 181.4 102.168 195.663 103.253 170.407C104.331 145.155 85.3894 124.462 75.0317 85.9859C75.0317 85.9859 82.2452 84.7984 88.5407 81.0013C93.7451 77.8627 97.4501 72.3964 103.663 69.1539C107.51 67.1475 111.268 65.3381 114.573 63.9908C114.573 63.9908 124.3 78.5171 130.895 104.299C133.091 112.891 134.482 128.441 135.657 137.511C140.358 173.788 157.789 155.867 143.874 123.155Z" fill="#30AF21"/>
</g>
</g>
</g>
</g>
</g>
<mask id="mask5_536_13719" style="mask-type:luminance" maskUnits="userSpaceOnUse" x="11" y="30" width="286" height="289">
<path d="M296.221 90.2402L235.619 318.327L11.3981 258.752L72.0002 30.6653L296.221 90.2402Z" fill="white"/>
</mask>
<g mask="url(#mask5_536_13719)">
<mask id="mask6_536_13719" style="mask-type:luminance" maskUnits="userSpaceOnUse" x="9" y="42" width="285" height="263">
<path d="M271.159 42.0585L293.078 280.048L31.1857 304.168L9.26797 66.1739L271.159 42.0585Z" fill="white"/>
</mask>
<g mask="url(#mask6_536_13719)">
<mask id="mask7_536_13719" style="mask-type:luminance" maskUnits="userSpaceOnUse" x="9" y="42" width="285" height="263">
<path d="M293.089 280.19L271.171 42.1962L9.2786 66.3166L31.1976 304.306L293.089 280.19Z" fill="white"/>
</mask>
<g mask="url(#mask7_536_13719)">
<path d="M188.403 151.573C205.439 147.854 212.65 152.174 229.435 164.227C246.216 176.278 263.599 172.636 263.599 172.636M211.314 124.081C224.367 111.663 259.854 109.758 259.854 109.758M205.695 76.6738C214.026 115.333 207.386 130.793 207.386 130.793M153.338 63.1346C153.338 63.1346 167.18 80.2204 165.251 118.471C163.319 156.716 162.868 175.226 162.868 175.226M137.092 201.17C137.092 201.17 122.379 193.121 114.46 136.744C106.543 80.3625 99.8494 81.6612 99.8494 81.6612M116.159 220.548C116.159 220.548 83.6466 231.359 70.7866 210.109C57.9279 188.855 66.2642 168.372 65.3267 150.786C64.3855 133.194 59.1526 120.761 59.1526 120.761M148.516 284.534C148.516 284.534 104.835 266.574 120.109 219.048M198.495 257.492C198.495 257.492 172.562 249.686 158.413 229.231C144.263 208.782 131.606 205.753 131.606 205.753M166.598 177.494C178.517 181.151 191.923 193.513 199.925 206.375C207.922 219.234 233.358 221.649 233.358 221.649" stroke="#88CF25" stroke-width="0.677773" stroke-miterlimit="10"/>
</g>
</g>
</g>
<mask id="mask8_536_13719" style="mask-type:luminance" maskUnits="userSpaceOnUse" x="28" y="7" width="231" height="328">
<path d="M258.994 48.6182L182.984 334.693L28.3495 293.606L104.359 7.53202L258.994 48.6182Z" fill="white"/>
</mask>
<g mask="url(#mask8_536_13719)">
<mask id="mask9_536_13719" style="mask-type:luminance" maskUnits="userSpaceOnUse" x="9" y="42" width="285" height="263">
<path d="M271.159 42.0585L293.078 280.048L31.1857 304.168L9.26797 66.1739L271.159 42.0585Z" fill="white"/>
</mask>
<g mask="url(#mask9_536_13719)">
<mask id="mask10_536_13719" style="mask-type:luminance" maskUnits="userSpaceOnUse" x="9" y="42" width="285" height="263">
<path d="M293.089 280.19L271.171 42.1962L9.2786 66.3166L31.1976 304.306L293.089 280.19Z" fill="white"/>
</mask>
<g mask="url(#mask10_536_13719)">
<mask id="mask11_536_13719" style="mask-type:luminance" maskUnits="userSpaceOnUse" x="9" y="48" width="270" height="247">
<path d="M278.776 271.284L258.287 48.7645L9.56496 71.6688L30.0592 294.19L278.776 271.284Z" fill="white"/>
</mask>
<g mask="url(#mask11_536_13719)">
<mask id="mask12_536_13719" style="mask-type:luminance" maskUnits="userSpaceOnUse" x="9" y="48" width="270" height="247">
<path d="M278.776 271.284L258.287 48.7645L9.8065 71.6522L30.2971 294.167L278.776 271.284Z" fill="white"/>
</mask>
<g mask="url(#mask12_536_13719)">
<path d="M221.947 108.827C213.42 121.204 204.301 131.289 191.876 144.909C171.33 167.435 146.243 192.732 122.582 213.838C79.5455 252.23 39.8948 281.369 31.4463 287.327C29.7752 288.505 29.4516 290.838 30.7383 292.425C31.9666 293.948 34.2019 294.175 35.7246 292.947C49.4367 281.803 111.837 230.626 166.598 177.495C170.47 173.733 174.217 169.954 177.854 166.167C232.355 109.346 260.068 50.8223 257.707 49.4459C255.683 47.5716 244.605 75.9386 221.947 108.827Z" fill="#88CF25"/>
</g>
</g>
</g>
</g>
</g>
</svg>
