<svg xmlns="http://www.w3.org/2000/svg" width="159" height="122" viewBox="0 0 159 122" fill="none">
    <path
        d="M79.8398 50.7861C68.5273 50.7861 59.3242 59.9528 59.3242 71.2184C59.3242 82.4788 68.5273 91.6455 79.8398 91.6455C91.1523 91.6455 100.355 82.4788 100.355 71.2184C100.355 59.9528 91.1523 50.7861 79.8398 50.7861Z"
        fill="white" />
    <mask id="mask0_21_856" style="mask-type:luminance" maskUnits="userSpaceOnUse" x="0" y="0"
        width="159" height="122">
        <path d="M0.839844 0.5H158.84V121.5H0.839844V0.5Z" fill="white" />
    </mask>
    <g mask="url(#mask0_21_856)">
        <path
            d="M138.23 20.9323H114.559C114.559 9.64583 105.371 0.5 94.043 0.5H65.6367C54.3034 0.5 45.1211 9.64583 45.1211 20.9323H21.4492C10.1159 20.9323 0.933594 30.0781 0.933594 41.3594V101.073C0.933594 112.354 10.1159 121.5 21.4492 121.5H138.23C149.559 121.5 158.746 112.354 158.746 101.073V41.3594C158.746 30.0781 149.559 20.9323 138.23 20.9323ZM79.8398 107.359C59.8242 107.359 43.543 91.1458 43.543 71.2188C43.543 51.2865 59.8242 35.0729 79.8398 35.0729C99.8555 35.0729 116.137 51.2865 116.137 71.2188C116.137 91.1458 99.8555 107.359 79.8398 107.359Z"
            fill="white" />
    </g>
</svg>