<svg xmlns="http://www.w3.org/2000/svg" xmlns:xlink="http://www.w3.org/1999/xlink" width="1920" zoomAndPan="magnify" viewBox="0 0 1440 809.999993" height="1080" preserveAspectRatio="xMidYMid meet" version="1.0"><defs><clipPath id="3a396a3681"><path d="M 871.023438 363 L 1197.6875 363 L 1197.6875 535.570312 L 871.023438 535.570312 Z M 871.023438 363 " clip-rule="nonzero"/></clipPath><clipPath id="dc50780f68"><path d="M 368 500 L 1156 500 L 1156 779.371094 L 368 779.371094 Z M 368 500 " clip-rule="nonzero"/></clipPath></defs><path fill="#ffffff" d="M 745.890625 142.03125 C 762.957031 132.140625 773.125 115.773438 773.125 115.773438 L 749.320312 121.855469 C 749.320312 121.855469 759.707031 115.035156 765.707031 102.835938 C 730.9375 113.324219 678.398438 137.40625 664.28125 143.984375 C 662.90625 140.753906 659.816406 138.480469 656.167969 138.203125 L 647.8125 128.195312 C 647.8125 128.195312 647.195312 126.917969 645.921875 127.316406 C 644.644531 127.714844 645.042969 128.933594 645.042969 128.933594 L 647.277344 142.789062 C 646.398438 144.222656 645.878906 145.898438 645.878906 147.691406 C 645.878906 149.066406 646.179688 150.363281 646.675781 151.539062 C 628.375 159.535156 593.542969 175.824219 551.375 200.761719 C 566.625 202.117188 579.804688 198.089844 586.226562 195.621094 C 581.0625 197.953125 572.089844 202.4375 565.011719 208.277344 C 580.085938 211.230469 595.097656 207.898438 595.097656 207.898438 C 595.097656 207.898438 581.082031 211.789062 572.746094 218.367188 C 589.078125 220.859375 600.300781 216.929688 600.300781 216.929688 C 600.300781 216.929688 590.8125 222.132812 584.910156 226.878906 C 610.96875 225.941406 639.839844 217.988281 666.316406 208.097656 C 667.292969 217.109375 669.226562 239.539062 665.839844 253.433594 C 676.367188 245.777344 679.972656 233.078125 679.972656 233.078125 L 683.324219 244.902344 C 683.324219 244.902344 710.878906 238.601562 728.34375 216.929688 C 715.363281 210.96875 704.5 201.261719 698.21875 194.902344 C 731.554688 179.808594 755.640625 165.097656 755.640625 165.097656 C 755.640625 165.097656 751.8125 161.011719 740.726562 161.070312 C 757.871094 154.171875 766.90625 141.394531 766.90625 141.394531 C 766.90625 141.394531 761.402344 139.957031 745.890625 142.03125 " fill-opacity="1" fill-rule="nonzero"/><g clip-path="url(#3a396a3681)"><path fill="#16a34a" d="M 1063.765625 387.125 C 1051.003906 380.429688 1039.898438 380.46875 1039.898438 380.46875 C 1039.898438 380.46875 1057.222656 379.371094 1068.148438 383.019531 C 1079.054688 386.667969 1077.941406 389.640625 1091.277344 393.804688 C 1082.265625 395.222656 1076.542969 393.84375 1063.765625 387.125 Z M 1197.867188 381.445312 C 1196.035156 369.003906 1182.15625 369.683594 1167.859375 370.28125 C 1153.523438 370.859375 1145.429688 369.164062 1136.976562 366.511719 C 1121.105469 360.710938 1116.957031 365.574219 1108.445312 370.179688 C 1099.953125 374.785156 1080.730469 373.132812 1066.734375 372.492188 C 1052.757812 371.835938 1037.304688 374.546875 1035.832031 379.730469 C 1033.316406 388.542969 1067.832031 406.664062 1083.542969 399.746094 C 1087.847656 398.089844 1091.316406 399.46875 1089.285156 403.714844 C 1086.394531 410.75 1083.839844 415.515625 1081.109375 419.644531 C 1077.402344 425.285156 1069.167969 437.246094 1054.632812 451.582031 C 1046.9375 459.15625 1038.003906 465.753906 1029.132812 469.683594 C 1001.058594 482.082031 944.273438 449.625 913.171875 449.804688 C 885.914062 449.945312 874.292969 472.3125 871.800781 477.894531 C 945.769531 487.484375 1018.304688 506.664062 1087.089844 534.933594 L 1093.710938 535.214844 C 1093.710938 535.214844 1114.886719 485.074219 1119.710938 475.046875 C 1129.640625 454.429688 1141.285156 429.988281 1141.285156 429.988281 C 1141.285156 429.988281 1131.433594 428.851562 1127.40625 424.925781 C 1141.484375 427.835938 1156.535156 415.554688 1156.535156 415.554688 C 1156.535156 415.554688 1170.929688 404.691406 1182.535156 401.480469 C 1189.554688 402.695312 1193.5625 400.003906 1194.738281 396.15625 C 1195.933594 392.308594 1194.039062 393.464844 1188.714844 392.191406 C 1183.414062 390.894531 1179.464844 392.6875 1179.464844 392.6875 L 1193.460938 386.148438 C 1193.460938 386.148438 1197.96875 383.636719 1197.867188 381.445312 " fill-opacity="1" fill-rule="nonzero"/></g><path fill="#ffffff" d="M 719.929688 400.742188 C 719.292969 422.453125 717.898438 436.847656 713.390625 448.929688 L 707.75 472.511719 C 714.546875 472.074219 721.386719 471.777344 728.226562 471.496094 L 733.25 452.558594 C 733.25 452.558594 757.8125 422.871094 770.554688 382.941406 C 769.078125 394.34375 765.726562 413.5625 757.535156 441.632812 C 757.472656 441.574219 762.058594 454.808594 767.640625 470.820312 C 774.699219 470.859375 781.738281 470.9375 788.777344 471.15625 C 785.425781 460.8125 782.398438 451.300781 780.839844 446.277344 C 776.253906 431.484375 784.511719 416.53125 784.511719 416.53125 L 806.5625 369.265625 C 829.769531 362.765625 841.332031 353.792969 849.070312 365.117188 L 843.46875 429.96875 L 839.640625 474.289062 C 846.160156 474.867188 852.640625 475.625 859.136719 476.363281 L 865.636719 433.257812 L 881.011719 366.453125 C 884.398438 356.425781 893.910156 349.167969 893.910156 349.167969 C 893.910156 349.167969 885.816406 363.144531 882.785156 389.21875 C 879.753906 415.316406 876.566406 443.664062 876.566406 443.664062 L 880.191406 479.050781 C 886.253906 479.910156 892.296875 480.808594 898.335938 481.785156 C 897.101562 465.375 895.625 447.15625 894.6875 440.078125 C 892.792969 425.984375 893.210938 360.054688 905.234375 341.832031 C 917.257812 323.589844 930.476562 309.433594 924.515625 285.371094 C 918.574219 261.308594 930.796875 241.511719 944.574219 212.265625 C 958.351562 183.039062 975.078125 120.5 995.175781 115.59375 L 1025.261719 132.5 C 1025.261719 132.5 1042.609375 143.207031 1048.050781 137.125 C 1056.585938 127.65625 1041.035156 112.007812 1033.777344 101.082031 C 1026.519531 90.15625 1021.65625 80.128906 1011.90625 70.300781 C 1005.5625 63.859375 1001.398438 55.007812 999.285156 46.753906 C 1002.613281 45.578125 1004.984375 42.390625 1004.925781 38.640625 C 1004.828125 33.957031 1000.957031 30.226562 996.253906 30.308594 C 991.585938 30.40625 987.839844 34.273438 987.917969 38.960938 C 987.980469 42.308594 990.011719 45.140625 992.84375 46.476562 C 991.945312 53.992188 989.515625 63.164062 983.195312 67.847656 C 982.476562 68.367188 976.875 71.753906 957.113281 68.285156 C 947.085938 66.75 942.480469 71.835938 942.480469 71.835938 C 942.480469 71.835938 954.882812 85.074219 972.128906 83.257812 C 964.371094 86.746094 956.617188 86.746094 950.714844 85.832031 C 942.5 93.285156 933.46875 105.050781 923.398438 124.964844 C 899.355469 172.652344 889.804688 190.15625 864.261719 199.046875 C 838.722656 207.941406 836.925781 216.132812 827.816406 232.742188 C 818.722656 249.367188 804.46875 261.746094 776.253906 272.59375 C 763.773438 277.398438 751.59375 287.445312 741.800781 300.941406 C 738.152344 305.546875 730.617188 315.714844 723.480469 329.171875 C 711.933594 356.683594 720.230469 390.515625 719.929688 400.742188 " fill-opacity="1" fill-rule="nonzero"/><path fill="#ffffff" d="M 349.976562 447.136719 C 351.574219 446.136719 355.28125 443.90625 358.988281 441.632812 C 363.914062 443.246094 366.707031 452.816406 368.203125 455.546875 C 370.433594 459.636719 374.363281 459.414062 374.5625 455.347656 C 371.152344 439.019531 385.308594 428.515625 388.816406 423.609375 C 392.328125 418.726562 396.671875 425.304688 400.699219 431.84375 C 409.332031 448.628906 426.402344 424.449219 431.746094 439.398438 C 433.738281 445 434.414062 446.675781 434.617188 447.09375 C 434.617188 447.253906 434.773438 448.113281 435.613281 451.222656 C 438.265625 461.167969 448.730469 480.628906 426.71875 494.125 C 404.707031 507.621094 407.820312 522.09375 399.207031 532.820312 C 390.832031 543.226562 398.25 551.480469 398.667969 551.941406 C 418.046875 542.828125 437.707031 534.394531 457.722656 526.78125 C 465.417969 517.609375 476.324219 509.554688 484.160156 497.535156 L 484.339844 497.253906 C 496.363281 478.652344 501.367188 448.910156 501.367188 448.910156 C 501.367188 448.910156 504.457031 483.179688 498.335938 495.378906 C 495.726562 500.625 492.695312 504.890625 484.460938 517.109375 C 497.820312 512.527344 511.335938 508.320312 524.933594 504.410156 C 521.464844 498.628906 517.878906 492.730469 514.289062 486.171875 C 505.375 469.941406 515.941406 461.589844 526.75 447.335938 C 532.589844 447.851562 539.410156 447.554688 545.453125 447.035156 C 549.898438 446.636719 561.621094 444.921875 561.621094 444.921875 C 561.621094 444.921875 557.652344 463.742188 556.199219 481.40625 C 555.757812 486.589844 555.640625 491.433594 555.601562 496.117188 C 573.007812 491.792969 590.550781 487.984375 608.238281 484.753906 C 608.554688 482.082031 608.953125 479.550781 609.574219 477.179688 C 610.988281 471.535156 615.375 460.433594 622.171875 450.605469 L 622.035156 450.464844 C 622.035156 450.464844 637.84375 420.242188 643.367188 385.890625 C 643.527344 404.851562 646.257812 422.914062 636.148438 448.730469 C 647.8125 452.757812 661.789062 457.5625 668.6875 459.8125 C 675.328125 461.96875 679.316406 467.730469 682.128906 474.546875 C 699.035156 472.953125 716.003906 471.855469 733.011719 471.277344 C 731.296875 468.527344 729.101562 465.019531 726.269531 460.453125 C 713.113281 439.378906 711.417969 427.816406 704.9375 421.835938 C 691.738281 405.765625 685.914062 401.023438 678.796875 386.667969 C 678.101562 385.273438 670.824219 368.386719 667.273438 358.738281 C 652.378906 318.40625 639.777344 307.101562 610.289062 290.058594 C 580.820312 272.992188 544.136719 280.726562 524.996094 289.199219 C 505.875 297.671875 484.898438 305.507812 484.898438 305.507812 C 484.898438 305.507812 484.898438 305.507812 493.890625 325.703125 C 502.863281 345.898438 493.953125 360.054688 463.367188 384.054688 C 498.257812 349.347656 480.453125 330.546875 463.625 305.886719 C 446.796875 281.226562 432.941406 289.179688 427.097656 295.339844 C 404.449219 317.808594 363.457031 318.308594 348.960938 328.234375 C 309.222656 353.953125 306.292969 391.792969 312.933594 431.425781 C 322.023438 429.710938 332.351562 426.183594 349.417969 418.328125 L 349.398438 418.546875 C 348.5625 418.863281 347.683594 419.304688 346.789062 419.941406 C 306.730469 453.496094 264.324219 462.085938 245.742188 464.28125 C 242.390625 465.296875 242.371094 467.410156 245.640625 468.308594 C 269.648438 474.90625 296.804688 468.984375 317.28125 461.789062 C 318.058594 486.570312 309.382812 497.054688 297.242188 503.15625 C 281.648438 510.992188 270.386719 517.828125 263.507812 527.578125 C 256.648438 537.328125 252.480469 547.035156 266.636719 554.390625 C 275.847656 559.195312 278.820312 552.777344 283.226562 547.3125 C 292.4375 535.152344 301.726562 532.203125 301.726562 532.203125 C 301.726562 532.203125 315.683594 524.449219 331.515625 512.644531 C 347.347656 500.824219 347.527344 482.601562 347.527344 482.601562 L 349.976562 447.136719 " fill-opacity="1" fill-rule="nonzero"/><path fill="#ffffff" d="M 1008.335938 626.082031 C 995.933594 622.691406 989.652344 634.15625 985.386719 649.828125 C 980.980469 665.996094 980.703125 679.929688 994.578125 683.71875 C 1006.980469 687.085938 1013.21875 675.804688 1017.488281 660.132812 C 1021.933594 643.804688 1022.234375 629.871094 1008.335938 626.082031 " fill-opacity="1" fill-rule="nonzero"/><path fill="#ffffff" d="M 918.535156 606.445312 C 905.855469 604.3125 900.75 616.3125 898.058594 632.34375 C 895.265625 648.871094 896.363281 662.785156 910.539062 665.175781 C 923.238281 667.3125 928.324219 655.449219 931.015625 639.441406 C 933.808594 622.753906 932.730469 608.835938 918.535156 606.445312 " fill-opacity="1" fill-rule="nonzero"/><path fill="#ffffff" d="M 711.855469 604.609375 C 711.375 598.03125 706.851562 594.285156 700.789062 594.722656 C 685.914062 595.820312 683.304688 611.089844 683.78125 624.804688 C 704.855469 622.773438 712.414062 612.386719 711.855469 604.609375 " fill-opacity="1" fill-rule="nonzero"/><g clip-path="url(#dc50780f68)"><path fill="#ffffff" d="M 1038.183594 664.019531 C 1031.542969 688.34375 1014.136719 703.953125 989.15625 697.15625 C 964.171875 690.335938 957.710938 671.578125 964.691406 645.9375 C 971.410156 621.296875 988.777344 605.847656 1013.757812 612.644531 C 1038.742188 619.464844 1045.242188 638.0625 1038.183594 664.019531 Z M 951.992188 641.253906 C 947.804688 666.132812 932.03125 683.378906 906.492188 679.074219 C 880.949219 674.785156 872.65625 656.746094 877.0625 630.527344 C 881.308594 605.347656 897.0625 588.242188 922.601562 592.550781 C 948.140625 596.855469 956.457031 614.71875 951.992188 641.253906 Z M 868.507812 568.128906 L 813.839844 651.339844 C 817.726562 651.460938 821.613281 651.5625 826.339844 651.878906 L 864.5 654.550781 L 863.40625 670.421875 L 786.742188 665.078125 L 787.582031 652.917969 L 843.128906 569.582031 C 838.523438 569.761719 833.976562 569.464844 828.574219 569.066406 L 796.472656 566.832031 L 794.898438 550.785156 L 869.367188 555.964844 Z M 725.472656 663.363281 C 719.691406 665.816406 712.054688 668.246094 703.460938 668.867188 C 677.28125 670.757812 665.796875 655.148438 663.984375 630.328125 C 661.789062 600.105469 678.378906 582.941406 701.328125 581.285156 C 721.425781 579.808594 730.277344 589.699219 731.273438 603.195312 C 732.453125 619.582031 714.867188 634.4375 685.199219 637.105469 C 687.292969 647.292969 691.957031 655.628906 705.136719 654.652344 C 710.042969 654.3125 716.023438 652.519531 720.628906 650.644531 C 723.441406 649.585938 726.070312 648.390625 728.683594 647.015625 L 734.644531 658.796875 C 731.875 660.511719 728.742188 661.949219 725.472656 663.363281 Z M 634.277344 675.144531 L 625.003906 620.757812 C 623.410156 611.410156 619.421875 606.265625 611.585938 607.601562 C 602.234375 609.195312 594.039062 620.539062 595.816406 635.871094 L 603.433594 680.429688 L 584.230469 683.699219 L 564.152344 566.09375 L 582.753906 559.476562 L 591.03125 607.839844 C 596.074219 598.230469 604.847656 593.308594 614.695312 591.613281 C 622.214844 590.335938 628.214844 591.375 633.101562 594.824219 C 638.582031 598.691406 642.191406 605.808594 643.964844 616.152344 L 653.476562 671.875 Z M 544.734375 693.746094 L 525.132812 699.128906 L 498.875 603.496094 L 471.140625 611.109375 L 467.054688 596.257812 L 544.253906 575.066406 L 545.890625 590.597656 L 518.476562 598.113281 Z M 1145.210938 595.339844 C 1030.785156 535.074219 900.449219 500.921875 762.121094 500.921875 C 623.789062 500.921875 493.472656 535.074219 379.027344 595.339844 C 360.945312 605.449219 372.527344 625.824219 372.527344 625.824219 L 451.800781 767.949219 C 451.800781 767.949219 463.566406 786.589844 484.5 776.242188 C 567.882812 733.917969 662.210938 710.035156 762.121094 710.035156 C 862.050781 710.035156 956.375 733.917969 1039.757812 776.242188 C 1060.691406 786.589844 1072.4375 767.949219 1072.4375 767.949219 L 1151.730469 625.824219 C 1151.730469 625.824219 1163.316406 605.449219 1145.210938 595.339844 " fill-opacity="1" fill-rule="nonzero"/></g></svg>